HIERARCHY
ROOT Hips
{
	OFFSET 0.000000 89.005402 0.000000
	CHANNELS 6 Xposition Yposition Zposition Xrotation Yrotation Zrotation
	JOINT Spine
	{
		OFFSET 0.116900 10.681000 0.373400
		CHANNELS 3 Xrotation Yrotation Zrotation
		JOINT Spine1
		{
			OFFSET 0.000000 13.840401 0.053500
			CHANNELS 3 Xrotation Yrotation Zrotation
			JOINT Spine2
			{
				OFFSET 0.000000 14.712700 -0.366200
				CHANNELS 3 Xrotation Yrotation Zrotation
				JOINT Neck
				{
					OFFSET 0.000000 35.415497 -3.314200
					CHANNELS 3 Xrotation Yrotation Zrotation
					JOINT Head
					{
						OFFSET 0.000000 16.899200 1.218300
						CHANNELS 3 Xrotation Yrotation Zrotation
						JOINT HeadTop_End
						{
							OFFSET 0.000000 22.206207 2.192500
							CHANNELS 3 Xrotation Yrotation Zrotation
							End Site
							{
								OFFSET 0.000000 22.314178 0.000000
							}
						}
					}
				}
				JOINT LeftShoulder
				{
					OFFSET 12.896400 26.716293 -4.548400
					CHANNELS 3 Xrotation Yrotation Zrotation
					JOINT LeftArm
					{
						OFFSET 19.027000 -4.857010 -1.718400
						CHANNELS 3 Xrotation Yrotation Zrotation
						JOINT LeftForeArm
						{
							OFFSET 24.179897 0.000000 0.000000
							CHANNELS 3 Xrotation Yrotation Zrotation
							JOINT LeftHand
							{
								OFFSET 27.156403 0.000000 0.000000
								CHANNELS 3 Xrotation Yrotation Zrotation
								JOINT LeftHandIndex1
								{
									OFFSET 16.441200 0.000000 0.000000
									CHANNELS 3 Xrotation Yrotation Zrotation
									JOINT LeftHandIndex2
									{
										OFFSET 4.821899 0.000000 0.000000
										CHANNELS 3 Xrotation Yrotation Zrotation
										JOINT LeftHandIndex3
										{
											OFFSET 6.386497 0.000000 0.000000
											CHANNELS 3 Xrotation Yrotation Zrotation
											JOINT LeftHandIndex4
											{
												OFFSET 5.188988 0.000000 0.000000
												CHANNELS 3 Xrotation Yrotation Zrotation
												End Site
												{
													OFFSET -0.178703 5.185913 0.000177
												}
											}
										}
									}
								}
								JOINT LeftHandThumb1
								{
									OFFSET 6.534897 -5.032593 5.900300
									CHANNELS 3 Xrotation Yrotation Zrotation
									JOINT LeftHandThumb2
									{
										OFFSET 3.818176 -2.204422 2.204423
										CHANNELS 3 Xrotation Yrotation Zrotation
										JOINT LeftHandThumb3
										{
											OFFSET 3.252098 -1.877594 1.877601
											CHANNELS 3 Xrotation Yrotation Zrotation
											JOINT LeftHandThumb4
											{
												OFFSET 5.251778 -3.032120 3.032117
												CHANNELS 3 Xrotation Yrotation Zrotation
												End Site
												{
													OFFSET 0.000023 6.780014 0.000000
												}
											}
										}
									}
								}
							}
						}
					}
				}
				JOINT RightShoulder
				{
					OFFSET -12.896300 26.716293 -4.548400
					CHANNELS 3 Xrotation Yrotation Zrotation
					JOINT RightArm
					{
						OFFSET -19.027000 -4.857010 -1.718400
						CHANNELS 3 Xrotation Yrotation Zrotation
						JOINT RightForeArm
						{
							OFFSET -24.179897 0.000000 0.000000
							CHANNELS 3 Xrotation Yrotation Zrotation
							JOINT RightHand
							{
								OFFSET -27.156403 0.000000 0.000000
								CHANNELS 3 Xrotation Yrotation Zrotation
								JOINT RightHandThumb1
								{
									OFFSET -6.591202 -4.852203 5.988100
									CHANNELS 3 Xrotation Yrotation Zrotation
									JOINT RightHandThumb2
									{
										OFFSET -3.818176 -2.204422 2.204423
										CHANNELS 3 Xrotation Yrotation Zrotation
										JOINT RightHandThumb3
										{
											OFFSET -3.252098 -1.877594 1.877601
											CHANNELS 3 Xrotation Yrotation Zrotation
											JOINT RightHandThumb4
											{
												OFFSET -5.251778 -3.032120 3.032117
												CHANNELS 3 Xrotation Yrotation Zrotation
												End Site
												{
													OFFSET -0.000023 6.780014 0.000000
												}
											}
										}
									}
								}
								JOINT RightHandIndex1
								{
									OFFSET -16.029404 0.000000 0.000000
									CHANNELS 3 Xrotation Yrotation Zrotation
									JOINT RightHandIndex2
									{
										OFFSET -5.213303 0.000000 0.000000
										CHANNELS 3 Xrotation Yrotation Zrotation
										JOINT RightHandIndex3
										{
											OFFSET -6.386528 0.000000 0.000000
											CHANNELS 3 Xrotation Yrotation Zrotation
											JOINT RightHandIndex4
											{
												OFFSET -5.189026 0.000000 0.000000
												CHANNELS 3 Xrotation Yrotation Zrotation
												End Site
												{
													OFFSET 0.236702 5.183624 0.001972
												}
											}
										}
									}
								}
							}
						}
					}
				}
			}
		}
	}
	JOINT LeftUpLeg
	{
		OFFSET 14.073000 -7.904099 -1.463000
		CHANNELS 3 Xrotation Yrotation Zrotation
		JOINT LeftLeg
		{
			OFFSET -0.109806 -34.073280 4.093200
			CHANNELS 3 Xrotation Yrotation Zrotation
			JOINT LeftFoot
			{
				OFFSET 0.109806 -29.899420 -6.319000
				CHANNELS 3 Xrotation Yrotation Zrotation
				JOINT LeftToeBase
				{
					OFFSET 1.551100 -14.988700 20.535801
					CHANNELS 3 Xrotation Yrotation Zrotation
					JOINT LeftToe_End
					{
						OFFSET 0.221200 0.570800 13.248301
						CHANNELS 3 Xrotation Yrotation Zrotation
						End Site
						{
							OFFSET 0.000000 13.262435 0.000000
						}
					}
				}
			}
		}
	}
	JOINT RightUpLeg
	{
		OFFSET -13.839300 -7.904099 -1.463000
		CHANNELS 3 Xrotation Yrotation Zrotation
		JOINT RightLeg
		{
			OFFSET 0.109694 -34.073219 4.093300
			CHANNELS 3 Xrotation Yrotation Zrotation
			JOINT RightFoot
			{
				OFFSET -0.109694 -29.899384 -6.319200
				CHANNELS 3 Xrotation Yrotation Zrotation
				JOINT RightToeBase
				{
					OFFSET -1.551100 -14.988700 20.535801
					CHANNELS 3 Xrotation Yrotation Zrotation
					JOINT RightToe_End
					{
						OFFSET -0.221200 0.570900 13.248299
						CHANNELS 3 Xrotation Yrotation Zrotation
						End Site
						{
							OFFSET 0.000000 13.262440 0.000000
						}
					}
				}
			}
		}
	}
}
MOTION
Frames: 5
Frame Time: 0.033333
-0.978312 69.685326 0.496957 -3.165519 -60.089320 -5.391213 22.834200 5.738644 -12.469231 11.773545 0.557472 -1.986130 11.777086 0.769591 -1.908646 -11.045942 8.772286 -10.908675 -27.192793 32.575351 -7.133760 -0.000000 -0.000000 -0.000000 2.504206 -25.024160 4.017295 -78.817214 -64.422351 -68.332791 -0.001454 -85.680263 -0.001481 6.597780 -19.257262 13.825123 0.013704 -0.435037 3.607146 0.016603 0.478852 -3.971113 0.058281 0.895880 -7.445112 -0.000001 0.000000 0.000006 -1.561227 -5.474483 4.785182 4.010884 8.786763 0.813000 -0.047508 7.418361 3.107578 0.000000 -0.000001 0.000001 -3.019843 -53.871403 -2.101056 -6.317406 -10.520551 25.048457 0.000000 56.670090 -0.000004 -3.298678 0.998183 -13.212748 -2.056078 -12.759923 -8.036665 5.469607 -17.960758 -0.857014 -0.444467 -9.221556 -3.063883 -0.000000 0.000000 0.000002 0.018176 -0.503481 4.134985 0.160424 -1.487914 12.306526 0.272624 -1.931623 16.065901 0.000000 -0.000000 0.000000 -33.793928 30.444042 13.412857 73.879171 10.338146 -3.055001 -46.366992 12.925544 2.561580 -1.366736 0.000001 -0.000000 -0.000000 -0.000000 -0.000000 -52.183946 -23.783407 -13.686085 62.295150 -9.238297 9.755099 -19.748123 -20.115629 -16.138646 -1.492290 0.000005 -0.000003 -0.000000 -0.000000 0.000000 
-0.933143 69.847618 0.255120 -3.309255 -59.107726 -5.409692 23.151201 5.813273 -12.795772 11.352378 0.595611 -2.053184 11.356340 0.798919 -1.975771 -9.431219 8.615087 -11.228704 -27.834501 32.639685 -6.505850 0.000000 -0.000000 0.000001 2.853289 -26.249283 2.339407 -70.814821 -67.930145 -63.228700 -0.001387 -83.664531 -0.001381 5.753569 -18.315869 14.121101 0.012166 -0.409914 3.398882 0.007342 0.318442 -2.639782 0.049703 0.827594 -6.874747 -0.000000 0.000001 0.000003 -1.547438 -4.396577 4.945622 4.056811 9.327481 0.855226 -0.024194 7.688340 3.132687 0.000002 0.000002 0.000000 -1.695951 -52.224480 -2.176187 -2.152703 -5.981544 24.921371 0.000013 57.203821 -0.000010 0.095109 0.047573 -11.248371 -2.061474 -12.909403 -8.060957 5.476041 -18.035914 -0.861647 -0.441435 -9.259046 -3.067522 -0.000000 -0.000000 -0.000001 0.017539 -0.494570 4.061819 0.146042 -1.420422 11.739878 0.268899 -1.918631 15.954962 0.000000 -0.000003 0.000001 -33.795680 29.268088 12.640409 73.564272 10.376326 -2.845600 -45.509731 13.009861 2.657713 -0.962575 -0.000000 0.000000 -0.000000 0.000000 0.000000 -51.880987 -22.923124 -13.615074 62.105503 -9.854763 9.798847 -19.298928 -20.604492 -15.509205 -0.918914 0.000017 -0.000002 -0.000000 0.000000 -0.000000 
-0.960413 70.495636 0.014138 -3.331698 -58.111543 -5.254842 23.065214 6.131827 -13.178613 10.905456 0.654702 -2.274400 10.912206 0.845655 -2.193290 -7.865182 8.340931 -10.727608 -27.799568 32.535592 -5.583577 -0.000001 0.000000 0.000001 3.225675 -27.651223 0.733989 -54.768616 -69.702914 -54.000312 -0.000553 -79.622705 -0.000544 5.999750 -18.422443 16.296092 0.007805 -0.328432 2.722470 0.004165 0.240316 -1.991751 0.040222 0.744762 -6.183759 -0.000001 0.000001 0.000002 -1.549748 -4.595274 4.916076 4.048355 9.227796 0.847481 -0.028485 7.638579 3.128066 -0.000000 -0.000001 -0.000000 -1.493138 -49.616752 -2.591387 5.698465 0.029694 26.462120 0.000004 57.305021 -0.000009 1.978344 -0.984538 -8.881800 -2.088545 -13.632293 -8.178901 5.507082 -18.399317 -0.883949 -0.426795 -9.440346 -3.085141 0.000001 -0.000000 -0.000003 0.026515 -0.607875 4.994515 0.136113 -1.371798 11.332363 0.261727 -1.893384 15.739336 0.000003 -0.000002 -0.000002 -33.125929 27.632215 10.989839 71.962456 10.438967 -2.379250 -43.866593 14.122442 2.803414 -0.816809 -0.000002 -0.000000 0.000000 -0.000000 -0.000000 -50.787060 -21.100532 -12.720291 60.621829 -9.747196 9.827485 -18.226288 -22.599206 -14.904055 -1.301810 0.000007 0.000002 0.000000 0.000000 0.000000 
-1.081431 71.877121 -0.253893 -2.648452 -56.414699 -4.209082 22.629692 6.680774 -13.544540 10.418479 0.733292 -2.652879 10.430646 0.906768 -2.565138 -6.362913 7.908597 -9.278526 -26.879953 32.149875 -4.671590 0.000001 0.000000 0.000000 3.603367 -29.149939 -0.560949 -35.144332 -65.795499 -44.536836 -0.000002 -74.115339 -0.000011 7.501804 -19.888027 19.848378 0.008348 -0.339441 2.813922 0.005197 0.268112 -2.222146 0.032376 0.668344 -5.547088 -0.000001 0.000004 0.000001 -1.576244 -6.442282 4.640626 3.969367 8.301314 0.774778 -0.068511 7.175966 3.084941 -0.000000 0.000004 -0.000001 -2.304939 -46.021408 -2.772975 15.550427 8.228951 30.107259 0.000006 56.459180 0.000005 0.987952 -1.629016 -6.009076 -2.122022 -14.471262 -8.316706 5.543008 -18.821088 -0.909633 -0.409852 -9.650789 -3.105539 0.000001 -0.000000 -0.000000 0.048357 -0.820306 6.747083 0.137037 -1.376364 11.370551 0.251889 -1.858123 15.438446 0.000001 -0.000001 0.000003 -31.832629 25.793151 8.470539 68.272529 10.492726 -1.740941 -40.867447 15.157310 3.016765 -0.723572 0.000002 0.000004 -0.000000 -0.000000 -0.000000 -49.137928 -18.244323 -11.506932 57.566747 -9.530078 9.862875 -16.401760 -24.143286 -14.051056 -2.809411 0.000028 -0.000000 -0.000000 0.000002 0.000000 
-1.276649 73.554321 -0.573184 -1.400837 -54.136233 -2.413223 21.969315 7.215186 -13.744708 9.927853 0.807416 -3.050418 9.946073 0.960481 -2.956799 -4.890105 7.364914 -7.306070 -25.347428 31.592610 -4.186722 -0.000002 -0.000000 -0.000000 3.883693 -30.098615 -1.468197 -23.323202 -55.614122 -43.726410 -0.000014 -68.752028 -0.000020 9.693480 -22.282326 23.517514 0.023223 -0.566219 4.697248 0.008399 0.341094 -2.827571 0.028795 0.630478 -5.231840 -0.000000 -0.000000 -0.000000 -1.637979 -9.411660 4.193236 3.840235 6.811871 0.655512 -0.133519 6.432217 3.015018 -0.000000 -0.000001 -0.000000 -3.449256 -41.770459 -2.162769 23.135808 18.932764 35.633599 0.000004 54.321413 -0.000004 -3.450279 -1.401811 -3.069405 -2.124685 -14.535841 -8.327371 5.545758 -18.853533 -0.911622 -0.408549 -9.667008 -3.107093 -0.000004 0.000000 -0.000000 0.085500 -1.089306 8.976234 0.151609 -1.446978 11.962554 0.244172 -1.829990 15.198977 -0.000000 0.000003 0.000002 -30.397333 24.102775 5.789346 63.465387 10.490763 -1.202986 -37.180008 15.390424 3.233241 -0.624798 -0.000001 -0.000001 -0.000000 -0.000000 0.000000 -47.895711 -14.222122 -9.950339 55.019564 -9.649887 9.989791 -16.510975 -21.987989 -13.508331 -4.966631 0.000005 -0.000001 -0.000000 0.000001 0.000000 
